<?xml version="1.0" encoding="UTF-8" standalone="no"?>
<!DOCTYPE svg PUBLIC "-//W3C//DTD SVG 1.1//EN"
 "http://www.w3.org/Graphics/SVG/1.1/DTD/svg11.dtd">
<!-- Generated by graphviz version 2.40.1 (20161225.0304)
 -->
<!-- Title: %3 Pages: 1 -->
<svg width="807pt" height="351pt"
 viewBox="0.00 0.00 806.63 351.40" xmlns="http://www.w3.org/2000/svg" xmlns:xlink="http://www.w3.org/1999/xlink">
<g id="graph0" class="graph" transform="scale(1 1) rotate(0) translate(4 347.4041)">
<title>%3</title>
<polygon fill="#ffffff" stroke="transparent" points="-4,4 -4,-347.4041 802.6274,-347.4041 802.6274,4 -4,4"/>
<!-- &#45;1 -->
<g id="node1" class="node">
<title>&#45;1</title>
<polygon fill="#d3d3d3" stroke="#000000" points="22,-329.7767 0,-329.7767 0,-311.7767 22,-311.7767 22,-329.7767"/>
<text text-anchor="middle" x="11" y="-318.5767" font-family="Times,serif" font-size="9.00" fill="#000000">&#45;1</text>
</g>
<!-- &#45;2 -->
<g id="node2" class="node">
<title>&#45;2</title>
<polygon fill="#d3d3d3" stroke="#000000" points="62,-329.7767 40,-329.7767 40,-311.7767 62,-311.7767 62,-329.7767"/>
<text text-anchor="middle" x="51" y="-318.5767" font-family="Times,serif" font-size="9.00" fill="#000000">&#45;2</text>
</g>
<!-- &#45;3 -->
<g id="node3" class="node">
<title>&#45;3</title>
<polygon fill="#d3d3d3" stroke="#000000" points="102,-329.7767 80,-329.7767 80,-311.7767 102,-311.7767 102,-329.7767"/>
<text text-anchor="middle" x="91" y="-318.5767" font-family="Times,serif" font-size="9.00" fill="#000000">&#45;3</text>
</g>
<!-- &#45;4 -->
<g id="node4" class="node">
<title>&#45;4</title>
<polygon fill="#d3d3d3" stroke="#000000" points="142,-329.7767 120,-329.7767 120,-311.7767 142,-311.7767 142,-329.7767"/>
<text text-anchor="middle" x="131" y="-318.5767" font-family="Times,serif" font-size="9.00" fill="#000000">&#45;4</text>
</g>
<!-- &#45;5 -->
<g id="node5" class="node">
<title>&#45;5</title>
<polygon fill="#d3d3d3" stroke="#000000" points="182,-329.7767 160,-329.7767 160,-311.7767 182,-311.7767 182,-329.7767"/>
<text text-anchor="middle" x="171" y="-318.5767" font-family="Times,serif" font-size="9.00" fill="#000000">&#45;5</text>
</g>
<!-- &#45;6 -->
<g id="node6" class="node">
<title>&#45;6</title>
<polygon fill="#d3d3d3" stroke="#000000" points="222,-329.7767 200,-329.7767 200,-311.7767 222,-311.7767 222,-329.7767"/>
<text text-anchor="middle" x="211" y="-318.5767" font-family="Times,serif" font-size="9.00" fill="#000000">&#45;6</text>
</g>
<!-- &#45;7 -->
<g id="node7" class="node">
<title>&#45;7</title>
<polygon fill="#d3d3d3" stroke="#000000" points="262,-329.7767 240,-329.7767 240,-311.7767 262,-311.7767 262,-329.7767"/>
<text text-anchor="middle" x="251" y="-318.5767" font-family="Times,serif" font-size="9.00" fill="#000000">&#45;7</text>
</g>
<!-- &#45;8 -->
<g id="node8" class="node">
<title>&#45;8</title>
<polygon fill="#d3d3d3" stroke="#000000" points="302,-329.7767 280,-329.7767 280,-311.7767 302,-311.7767 302,-329.7767"/>
<text text-anchor="middle" x="291" y="-318.5767" font-family="Times,serif" font-size="9.00" fill="#000000">&#45;8</text>
</g>
<!-- &#45;9 -->
<g id="node9" class="node">
<title>&#45;9</title>
<polygon fill="#d3d3d3" stroke="#000000" points="342,-329.7767 320,-329.7767 320,-311.7767 342,-311.7767 342,-329.7767"/>
<text text-anchor="middle" x="331" y="-318.5767" font-family="Times,serif" font-size="9.00" fill="#000000">&#45;9</text>
</g>
<!-- &#45;10 -->
<g id="node10" class="node">
<title>&#45;10</title>
<polygon fill="#d3d3d3" stroke="#000000" points="385.5,-329.7767 360.5,-329.7767 360.5,-311.7767 385.5,-311.7767 385.5,-329.7767"/>
<text text-anchor="middle" x="373" y="-318.5767" font-family="Times,serif" font-size="9.00" fill="#000000">&#45;10</text>
</g>
<!-- &#45;11 -->
<g id="node11" class="node">
<title>&#45;11</title>
<polygon fill="#d3d3d3" stroke="#000000" points="428.5,-329.7767 403.5,-329.7767 403.5,-311.7767 428.5,-311.7767 428.5,-329.7767"/>
<text text-anchor="middle" x="416" y="-318.5767" font-family="Times,serif" font-size="9.00" fill="#000000">&#45;11</text>
</g>
<!-- &#45;12 -->
<g id="node12" class="node">
<title>&#45;12</title>
<polygon fill="#d3d3d3" stroke="#000000" points="471.5,-329.7767 446.5,-329.7767 446.5,-311.7767 471.5,-311.7767 471.5,-329.7767"/>
<text text-anchor="middle" x="459" y="-318.5767" font-family="Times,serif" font-size="9.00" fill="#000000">&#45;12</text>
</g>
<!-- right -->
<g id="node21" class="node">
<title>right</title>
<ellipse fill="#add8e6" stroke="#000000" cx="459" cy="-241.6432" rx="20.5122" ry="20.5122"/>
<text text-anchor="middle" x="459" y="-239.4432" font-family="Times,serif" font-size="9.00" fill="#000000">right</text>
</g>
<!-- &#45;12&#45;&gt;right -->
<g id="edge4" class="edge">
<title>&#45;12&#45;&gt;right</title>
<path fill="none" stroke="#ff0000" stroke-width=".9577" d="M459,-311.6991C459,-302.1879 459,-286.7127 459,-272.7229"/>
<polygon fill="#ff0000" stroke="#ff0000" stroke-width=".9577" points="462.5001,-272.4378 459,-262.4378 455.5001,-272.4378 462.5001,-272.4378"/>
</g>
<!-- &#45;13 -->
<g id="node13" class="node">
<title>&#45;13</title>
<polygon fill="#d3d3d3" stroke="#000000" points="563.5,-329.7767 538.5,-329.7767 538.5,-311.7767 563.5,-311.7767 563.5,-329.7767"/>
<text text-anchor="middle" x="551" y="-318.5767" font-family="Times,serif" font-size="9.00" fill="#000000">&#45;13</text>
</g>
<!-- &#45;14 -->
<g id="node14" class="node">
<title>&#45;14</title>
<polygon fill="#d3d3d3" stroke="#000000" points="606.5,-329.7767 581.5,-329.7767 581.5,-311.7767 606.5,-311.7767 606.5,-329.7767"/>
<text text-anchor="middle" x="594" y="-318.5767" font-family="Times,serif" font-size="9.00" fill="#000000">&#45;14</text>
</g>
<!-- 770 -->
<g id="node23" class="node">
<title>770</title>
<ellipse fill="#ffffff" stroke="#000000" cx="594" cy="-241.6432" rx="19.1842" ry="19.1842"/>
<text text-anchor="middle" x="594" y="-239.4432" font-family="Times,serif" font-size="9.00" fill="#000000">770</text>
</g>
<!-- &#45;14&#45;&gt;770 -->
<g id="edge2" class="edge">
<title>&#45;14&#45;&gt;770</title>
<path fill="none" stroke="#00ff00" stroke-width=".1263" d="M594,-311.6991C594,-301.768 594,-285.3346 594,-270.8793"/>
<polygon fill="#00ff00" stroke="#00ff00" stroke-width=".1263" points="597.5001,-270.8244 594,-260.8244 590.5001,-270.8245 597.5001,-270.8244"/>
</g>
<!-- &#45;15 -->
<g id="node15" class="node">
<title>&#45;15</title>
<polygon fill="#d3d3d3" stroke="#000000" points="649.5,-329.7767 624.5,-329.7767 624.5,-311.7767 649.5,-311.7767 649.5,-329.7767"/>
<text text-anchor="middle" x="637" y="-318.5767" font-family="Times,serif" font-size="9.00" fill="#000000">&#45;15</text>
</g>
<!-- &#45;16 -->
<g id="node16" class="node">
<title>&#45;16</title>
<polygon fill="#d3d3d3" stroke="#000000" points="692.5,-329.7767 667.5,-329.7767 667.5,-311.7767 692.5,-311.7767 692.5,-329.7767"/>
<text text-anchor="middle" x="680" y="-318.5767" font-family="Times,serif" font-size="9.00" fill="#000000">&#45;16</text>
</g>
<!-- &#45;17 -->
<g id="node17" class="node">
<title>&#45;17</title>
<polygon fill="#d3d3d3" stroke="#000000" points="520.5,-329.7767 495.5,-329.7767 495.5,-311.7767 520.5,-311.7767 520.5,-329.7767"/>
<text text-anchor="middle" x="508" y="-318.5767" font-family="Times,serif" font-size="9.00" fill="#000000">&#45;17</text>
</g>
<!-- &#45;17&#45;&gt;right -->
<g id="edge1" class="edge">
<title>&#45;17&#45;&gt;right</title>
<path fill="none" stroke="#00ff00" stroke-width=".2827" d="M502.3791,-311.6991C495.8424,-301.1425 484.7563,-283.2388 475.4279,-268.1738"/>
<polygon fill="#00ff00" stroke="#00ff00" stroke-width=".2827" points="478.1435,-265.911 469.9032,-259.2515 472.1921,-269.5962 478.1435,-265.911"/>
</g>
<!-- left -->
<g id="node22" class="node">
<title>left</title>
<ellipse fill="#add8e6" stroke="#000000" cx="515" cy="-241.6432" rx="17.8571" ry="17.8571"/>
<text text-anchor="middle" x="515" y="-239.4432" font-family="Times,serif" font-size="9.00" fill="#000000">left</text>
</g>
<!-- &#45;17&#45;&gt;left -->
<g id="edge5" class="edge">
<title>&#45;17&#45;&gt;left</title>
<path fill="none" stroke="#00ff00" stroke-width=".7195" d="M508.803,-311.6991C509.7046,-301.5066 511.2121,-284.4651 512.5144,-269.7423"/>
<polygon fill="#00ff00" stroke="#00ff00" stroke-width=".7195" points="516.02,-269.8322 513.4149,-259.5627 509.0473,-269.2154 516.02,-269.8322"/>
</g>
<!-- &#45;18 -->
<g id="node18" class="node">
<title>&#45;18</title>
<polygon fill="#d3d3d3" stroke="#000000" points="735.5,-329.7767 710.5,-329.7767 710.5,-311.7767 735.5,-311.7767 735.5,-329.7767"/>
<text text-anchor="middle" x="723" y="-318.5767" font-family="Times,serif" font-size="9.00" fill="#000000">&#45;18</text>
</g>
<!-- up -->
<g id="node19" class="node">
<title>up</title>
<ellipse fill="#add8e6" stroke="#000000" cx="604" cy="-16.2635" rx="16.0303" ry="16.0303"/>
<text text-anchor="middle" x="604" y="-14.0635" font-family="Times,serif" font-size="9.00" fill="#000000">up</text>
</g>
<!-- down -->
<g id="node20" class="node">
<title>down</title>
<ellipse fill="#add8e6" stroke="#000000" cx="776" cy="-320.7767" rx="22.7556" ry="22.7556"/>
<text text-anchor="middle" x="776" y="-318.5767" font-family="Times,serif" font-size="9.00" fill="#000000">down</text>
</g>
<!-- 770&#45;&gt;up -->
<g id="edge3" class="edge">
<title>770&#45;&gt;up</title>
<path fill="none" stroke="#ff0000" stroke-width=".1366" stroke-dasharray="1,5" d="M583.5487,-225.592C577.0851,-214.6762 569.395,-199.6348 566,-185.1371 553.8914,-133.4294 576.608,-72.6377 591.8397,-39.9435"/>
<polygon fill="#ff0000" stroke="#ff0000" stroke-width=".1366" points="595.0868,-41.2677 596.2797,-30.7402 588.7822,-38.2261 595.0868,-41.2677"/>
</g>
<!-- 950 -->
<g id="node26" class="node">
<title>950</title>
<ellipse fill="#ffffff" stroke="#000000" cx="594" cy="-166.0452" rx="19.1842" ry="19.1842"/>
<text text-anchor="middle" x="594" y="-163.8452" font-family="Times,serif" font-size="9.00" fill="#000000">950</text>
</g>
<!-- 770&#45;&gt;950 -->
<g id="edge10" class="edge">
<title>770&#45;&gt;950</title>
<path fill="none" stroke="#00ff00" stroke-width=".1373" d="M594,-222.1748C594,-213.9994 594,-204.3143 594,-195.3109"/>
<polygon fill="#00ff00" stroke="#00ff00" stroke-width=".1373" points="597.5001,-195.1858 594,-185.1859 590.5001,-195.1859 597.5001,-195.1858"/>
</g>
<!-- 862 -->
<g id="node27" class="node">
<title>862</title>
<ellipse fill="#ffffff" stroke="#000000" cx="660" cy="-166.0452" rx="19.1842" ry="19.1842"/>
<text text-anchor="middle" x="660" y="-163.8452" font-family="Times,serif" font-size="9.00" fill="#000000">862</text>
</g>
<!-- 770&#45;&gt;862 -->
<g id="edge6" class="edge">
<title>770&#45;&gt;862</title>
<path fill="none" stroke="#00ff00" stroke-width=".4602" d="M606.7255,-227.0671C616.3125,-216.0859 629.627,-200.8352 640.5468,-188.3274"/>
<polygon fill="#00ff00" stroke="#00ff00" stroke-width=".4602" points="643.3735,-190.4115 647.3136,-180.5765 638.1003,-185.8078 643.3735,-190.4115"/>
</g>
<!-- 879 -->
<g id="node24" class="node">
<title>879</title>
<ellipse fill="#ffffff" stroke="#000000" cx="670" cy="-89.7401" rx="19.1842" ry="19.1842"/>
<text text-anchor="middle" x="670" y="-87.5401" font-family="Times,serif" font-size="9.00" fill="#000000">879</text>
</g>
<!-- 879&#45;&gt;up -->
<g id="edge9" class="edge">
<title>879&#45;&gt;up</title>
<path fill="none" stroke="#00ff00" stroke-width=".6072" d="M656.9605,-75.2235C646.9759,-64.1077 633.0861,-48.6445 622.0362,-36.3428"/>
<polygon fill="#00ff00" stroke="#00ff00" stroke-width=".6072" points="624.5407,-33.8934 615.2544,-28.7928 619.3331,-38.5711 624.5407,-33.8934"/>
</g>
<!-- 1329 -->
<g id="node25" class="node">
<title>1329</title>
<ellipse fill="#ffffff" stroke="#000000" cx="728" cy="-89.7401" rx="21.4286" ry="21.4286"/>
<text text-anchor="middle" x="728" y="-87.5401" font-family="Times,serif" font-size="9.00" fill="#000000">1329</text>
</g>
<!-- 950&#45;&gt;up -->
<g id="edge11" class="edge">
<title>950&#45;&gt;up</title>
<path fill="none" stroke="#00ff00" stroke-width="1.4434" d="M595.2869,-146.7705C597.0533,-120.3117 600.2364,-72.6348 602.2274,-42.8141"/>
<polygon fill="#00ff00" stroke="#00ff00" stroke-width="1.4434" points="605.7281,-42.9187 602.9021,-32.7077 598.7436,-42.4523 605.7281,-42.9187"/>
</g>
<!-- 862&#45;&gt;up -->
<g id="edge7" class="edge">
<title>862&#45;&gt;up</title>
<path fill="none" stroke="#00ff00" stroke-width=".2029" d="M653.2451,-147.978C643.2612,-121.2743 624.5349,-71.1877 613.2727,-41.0648"/>
<polygon fill="#00ff00" stroke="#00ff00" stroke-width=".2029" points="616.5433,-39.8182 609.7629,-31.6772 609.9866,-42.2697 616.5433,-39.8182"/>
</g>
<!-- 862&#45;&gt;879 -->
<g id="edge8" class="edge">
<title>862&#45;&gt;879</title>
<path fill="none" stroke="#ff0000" stroke-width=".6376" d="M662.5234,-146.7902C663.6332,-138.3217 664.9609,-128.1914 666.1873,-118.8329"/>
<polygon fill="#ff0000" stroke="#ff0000" stroke-width=".6376" points="669.6828,-119.0947 667.512,-108.7246 662.7422,-118.185 669.6828,-119.0947"/>
</g>
<!-- 862&#45;&gt;1329 -->
<g id="edge12" class="edge">
<title>862&#45;&gt;1329</title>
<path fill="none" stroke="#00ff00" stroke-width=".4342" d="M672.7903,-151.6928C682.3844,-140.9269 695.7299,-125.9514 706.8966,-113.4209"/>
<polygon fill="#00ff00" stroke="#00ff00" stroke-width=".4342" points="709.8186,-115.4028 713.8587,-105.6085 704.5926,-110.7456 709.8186,-115.4028"/>
</g>
</g>
</svg>
