<?xml version="1.0" encoding="UTF-8" standalone="no"?>
<!DOCTYPE svg PUBLIC "-//W3C//DTD SVG 1.1//EN"
 "http://www.w3.org/Graphics/SVG/1.1/DTD/svg11.dtd">
<!-- Generated by graphviz version 2.40.1 (20161225.0304)
 -->
<!-- Title: %3 Pages: 1 -->
<svg width="751pt" height="407pt"
 viewBox="0.00 0.00 750.50 406.82" xmlns="http://www.w3.org/2000/svg" xmlns:xlink="http://www.w3.org/1999/xlink">
<g id="graph0" class="graph" transform="scale(1 1) rotate(0) translate(4 402.8183)">
<title>%3</title>
<polygon fill="#ffffff" stroke="transparent" points="-4,4 -4,-402.8183 746.5,-402.8183 746.5,4 -4,4"/>
<!-- &#45;1 -->
<g id="node1" class="node">
<title>&#45;1</title>
<polygon fill="#d3d3d3" stroke="#000000" points="200,-398.8183 178,-398.8183 178,-380.8183 200,-380.8183 200,-398.8183"/>
<text text-anchor="middle" x="189" y="-387.6183" font-family="Times,serif" font-size="9.00" fill="#000000">&#45;1</text>
</g>
<!-- &#45;2 -->
<g id="node2" class="node">
<title>&#45;2</title>
<polygon fill="#d3d3d3" stroke="#000000" points="240,-398.8183 218,-398.8183 218,-380.8183 240,-380.8183 240,-398.8183"/>
<text text-anchor="middle" x="229" y="-387.6183" font-family="Times,serif" font-size="9.00" fill="#000000">&#45;2</text>
</g>
<!-- &#45;3 -->
<g id="node3" class="node">
<title>&#45;3</title>
<polygon fill="#d3d3d3" stroke="#000000" points="22,-110.7609 0,-110.7609 0,-92.7609 22,-92.7609 22,-110.7609"/>
<text text-anchor="middle" x="11" y="-99.5609" font-family="Times,serif" font-size="9.00" fill="#000000">&#45;3</text>
</g>
<!-- down -->
<g id="node20" class="node">
<title>down</title>
<ellipse fill="#add8e6" stroke="#000000" cx="100" cy="-22.6274" rx="22.7556" ry="22.7556"/>
<text text-anchor="middle" x="100" y="-20.4274" font-family="Times,serif" font-size="9.00" fill="#000000">down</text>
</g>
<!-- &#45;3&#45;&gt;down -->
<g id="edge13" class="edge">
<title>&#45;3&#45;&gt;down</title>
<path fill="none" stroke="#ff0000" stroke-width=".251" d="M19.7814,-92.3909C23.2101,-88.8304 27.2197,-84.7844 31,-81.2548 44.9872,-68.1957 61.2744,-54.2994 74.5114,-43.3151"/>
<polygon fill="#ff0000" stroke="#ff0000" stroke-width=".251" points="76.8211,-45.947 82.3113,-36.8856 72.3687,-40.5455 76.8211,-45.947"/>
</g>
<!-- &#45;4 -->
<g id="node4" class="node">
<title>&#45;4</title>
<polygon fill="#d3d3d3" stroke="#000000" points="46,-186.3589 24,-186.3589 24,-168.3589 46,-168.3589 46,-186.3589"/>
<text text-anchor="middle" x="35" y="-175.1589" font-family="Times,serif" font-size="9.00" fill="#000000">&#45;4</text>
</g>
<!-- up -->
<g id="node19" class="node">
<title>up</title>
<ellipse fill="#add8e6" stroke="#000000" cx="56" cy="-101.7609" rx="16.0303" ry="16.0303"/>
<text text-anchor="middle" x="56" y="-99.5609" font-family="Times,serif" font-size="9.00" fill="#000000">up</text>
</g>
<!-- &#45;4&#45;&gt;up -->
<g id="edge5" class="edge">
<title>&#45;4&#45;&gt;up</title>
<path fill="none" stroke="#ff0000" stroke-width="1.3899" d="M37.575,-168.0891C40.3776,-158 44.9811,-141.4278 48.8854,-127.373"/>
<polygon fill="#ff0000" stroke="#ff0000" stroke-width="1.3899" points="52.2646,-128.2844 51.5689,-117.7125 45.52,-126.4108 52.2646,-128.2844"/>
</g>
<!-- &#45;5 -->
<g id="node5" class="node">
<title>&#45;5</title>
<polygon fill="#d3d3d3" stroke="#000000" points="324,-398.8183 302,-398.8183 302,-380.8183 324,-380.8183 324,-398.8183"/>
<text text-anchor="middle" x="313" y="-387.6183" font-family="Times,serif" font-size="9.00" fill="#000000">&#45;5</text>
</g>
<!-- &#45;6 -->
<g id="node6" class="node">
<title>&#45;6</title>
<polygon fill="#d3d3d3" stroke="#000000" points="364,-398.8183 342,-398.8183 342,-380.8183 364,-380.8183 364,-398.8183"/>
<text text-anchor="middle" x="353" y="-387.6183" font-family="Times,serif" font-size="9.00" fill="#000000">&#45;6</text>
</g>
<!-- &#45;7 -->
<g id="node7" class="node">
<title>&#45;7</title>
<polygon fill="#d3d3d3" stroke="#000000" points="404,-398.8183 382,-398.8183 382,-380.8183 404,-380.8183 404,-398.8183"/>
<text text-anchor="middle" x="393" y="-387.6183" font-family="Times,serif" font-size="9.00" fill="#000000">&#45;7</text>
</g>
<!-- &#45;8 -->
<g id="node8" class="node">
<title>&#45;8</title>
<polygon fill="#d3d3d3" stroke="#000000" points="444,-398.8183 422,-398.8183 422,-380.8183 444,-380.8183 444,-398.8183"/>
<text text-anchor="middle" x="433" y="-387.6183" font-family="Times,serif" font-size="9.00" fill="#000000">&#45;8</text>
</g>
<!-- &#45;9 -->
<g id="node9" class="node">
<title>&#45;9</title>
<polygon fill="#d3d3d3" stroke="#000000" points="484,-398.8183 462,-398.8183 462,-380.8183 484,-380.8183 484,-398.8183"/>
<text text-anchor="middle" x="473" y="-387.6183" font-family="Times,serif" font-size="9.00" fill="#000000">&#45;9</text>
</g>
<!-- &#45;10 -->
<g id="node10" class="node">
<title>&#45;10</title>
<polygon fill="#d3d3d3" stroke="#000000" points="527.5,-398.8183 502.5,-398.8183 502.5,-380.8183 527.5,-380.8183 527.5,-398.8183"/>
<text text-anchor="middle" x="515" y="-387.6183" font-family="Times,serif" font-size="9.00" fill="#000000">&#45;10</text>
</g>
<!-- &#45;11 -->
<g id="node11" class="node">
<title>&#45;11</title>
<polygon fill="#d3d3d3" stroke="#000000" points="570.5,-398.8183 545.5,-398.8183 545.5,-380.8183 570.5,-380.8183 570.5,-398.8183"/>
<text text-anchor="middle" x="558" y="-387.6183" font-family="Times,serif" font-size="9.00" fill="#000000">&#45;11</text>
</g>
<!-- &#45;12 -->
<g id="node12" class="node">
<title>&#45;12</title>
<polygon fill="#d3d3d3" stroke="#000000" points="283.5,-398.8183 258.5,-398.8183 258.5,-380.8183 283.5,-380.8183 283.5,-398.8183"/>
<text text-anchor="middle" x="271" y="-387.6183" font-family="Times,serif" font-size="9.00" fill="#000000">&#45;12</text>
</g>
<!-- left -->
<g id="node22" class="node">
<title>left</title>
<ellipse fill="#add8e6" stroke="#000000" cx="262" cy="-101.7609" rx="17.8571" ry="17.8571"/>
<text text-anchor="middle" x="262" y="-99.5609" font-family="Times,serif" font-size="9.00" fill="#000000">left</text>
</g>
<!-- &#45;12&#45;&gt;left -->
<g id="edge8" class="edge">
<title>&#45;12&#45;&gt;left</title>
<path fill="none" stroke="#00ff00" stroke-width=".3488" stroke-dasharray="1,5" d="M263.061,-380.5685C256.2347,-371.9602 246.8928,-358.4433 243,-344.8183 221.209,-268.55 241.5036,-173.6943 253.9445,-128.3356"/>
<polygon fill="#00ff00" stroke="#00ff00" stroke-width=".3488" points="257.3246,-129.2446 256.6851,-118.6691 250.5901,-127.3352 257.3246,-129.2446"/>
</g>
<!-- 902 -->
<g id="node24" class="node">
<title>902</title>
<ellipse fill="#ffffff" stroke="#000000" cx="271" cy="-325.7264" rx="19.1842" ry="19.1842"/>
<text text-anchor="middle" x="271" y="-323.5264" font-family="Times,serif" font-size="9.00" fill="#000000">902</text>
</g>
<!-- &#45;12&#45;&gt;902 -->
<g id="edge14" class="edge">
<title>&#45;12&#45;&gt;902</title>
<path fill="none" stroke="#00ff00" stroke-width=".3" d="M271,-380.6355C271,-373.8957 271,-364.3405 271,-355.0862"/>
<polygon fill="#00ff00" stroke="#00ff00" stroke-width=".3" points="274.5001,-354.9317 271,-344.9317 267.5001,-354.9317 274.5001,-354.9317"/>
</g>
<!-- 782 -->
<g id="node25" class="node">
<title>782</title>
<ellipse fill="#ffffff" stroke="#000000" cx="290" cy="-251.5427" rx="19.1842" ry="19.1842"/>
<text text-anchor="middle" x="290" y="-249.3427" font-family="Times,serif" font-size="9.00" fill="#000000">782</text>
</g>
<!-- &#45;12&#45;&gt;782 -->
<g id="edge9" class="edge">
<title>&#45;12&#45;&gt;782</title>
<path fill="none" stroke="#ff0000" stroke-width=".1566" stroke-dasharray="1,5" d="M278.939,-380.5685C285.7653,-371.9602 295.1072,-358.4433 299,-344.8183 305.1091,-323.4364 302.1287,-298.2959 298.0236,-279.5063"/>
<polygon fill="#ff0000" stroke="#ff0000" stroke-width=".1566" points="301.426,-278.6851 295.6778,-269.7851 294.6213,-280.3271 301.426,-278.6851"/>
</g>
<!-- &#45;13 -->
<g id="node13" class="node">
<title>&#45;13</title>
<polygon fill="#d3d3d3" stroke="#000000" points="613.5,-398.8183 588.5,-398.8183 588.5,-380.8183 613.5,-380.8183 613.5,-398.8183"/>
<text text-anchor="middle" x="601" y="-387.6183" font-family="Times,serif" font-size="9.00" fill="#000000">&#45;13</text>
</g>
<!-- &#45;14 -->
<g id="node14" class="node">
<title>&#45;14</title>
<polygon fill="#d3d3d3" stroke="#000000" points="656.5,-398.8183 631.5,-398.8183 631.5,-380.8183 656.5,-380.8183 656.5,-398.8183"/>
<text text-anchor="middle" x="644" y="-387.6183" font-family="Times,serif" font-size="9.00" fill="#000000">&#45;14</text>
</g>
<!-- &#45;15 -->
<g id="node15" class="node">
<title>&#45;15</title>
<polygon fill="#d3d3d3" stroke="#000000" points="699.5,-398.8183 674.5,-398.8183 674.5,-380.8183 699.5,-380.8183 699.5,-398.8183"/>
<text text-anchor="middle" x="687" y="-387.6183" font-family="Times,serif" font-size="9.00" fill="#000000">&#45;15</text>
</g>
<!-- &#45;16 -->
<g id="node16" class="node">
<title>&#45;16</title>
<polygon fill="#d3d3d3" stroke="#000000" points="89.5,-186.3589 64.5,-186.3589 64.5,-168.3589 89.5,-168.3589 89.5,-186.3589"/>
<text text-anchor="middle" x="77" y="-175.1589" font-family="Times,serif" font-size="9.00" fill="#000000">&#45;16</text>
</g>
<!-- &#45;16&#45;&gt;up -->
<g id="edge16" class="edge">
<title>&#45;16&#45;&gt;up</title>
<path fill="none" stroke="#00ff00" stroke-width=".405" d="M74.425,-168.0891C71.6224,-158 67.0189,-141.4278 63.1146,-127.373"/>
<polygon fill="#00ff00" stroke="#00ff00" stroke-width=".405" points="66.48,-126.4108 60.4311,-117.7125 59.7354,-128.2844 66.48,-126.4108"/>
</g>
<!-- &#45;17 -->
<g id="node17" class="node">
<title>&#45;17</title>
<polygon fill="#d3d3d3" stroke="#000000" points="161.5,-186.3589 136.5,-186.3589 136.5,-168.3589 161.5,-168.3589 161.5,-186.3589"/>
<text text-anchor="middle" x="149" y="-175.1589" font-family="Times,serif" font-size="9.00" fill="#000000">&#45;17</text>
</g>
<!-- &#45;17&#45;&gt;up -->
<g id="edge1" class="edge">
<title>&#45;17&#45;&gt;up</title>
<path fill="none" stroke="#00ff00" stroke-width=".1193" d="M137.5964,-168.0891C122.4543,-155.7804 95.4414,-133.8221 76.6636,-118.558"/>
<polygon fill="#00ff00" stroke="#00ff00" stroke-width=".1193" points="78.6551,-115.6664 68.6877,-112.0745 74.2397,-121.0982 78.6551,-115.6664"/>
</g>
<!-- &#45;17&#45;&gt;down -->
<g id="edge2" class="edge">
<title>&#45;17&#45;&gt;down</title>
<path fill="none" stroke="#00ff00" stroke-width=".4325" d="M142.7413,-168.0308C135.8956,-157.4003 125.0892,-139.2893 119,-122.267 111.2572,-100.622 106.4704,-75.1434 103.6383,-55.3689"/>
<polygon fill="#00ff00" stroke="#00ff00" stroke-width=".4325" points="107.0886,-54.7635 102.2949,-45.3152 100.1503,-55.6907 107.0886,-54.7635"/>
</g>
<!-- right -->
<g id="node21" class="node">
<title>right</title>
<ellipse fill="#add8e6" stroke="#000000" cx="149" cy="-101.7609" rx="20.5122" ry="20.5122"/>
<text text-anchor="middle" x="149" y="-99.5609" font-family="Times,serif" font-size="9.00" fill="#000000">right</text>
</g>
<!-- &#45;17&#45;&gt;right -->
<g id="edge3" class="edge">
<title>&#45;17&#45;&gt;right</title>
<path fill="none" stroke="#00ff00" stroke-width=".3097" stroke-dasharray="1,5" d="M149,-168.0891C149,-159.2796 149,-145.5271 149,-132.8236"/>
<polygon fill="#00ff00" stroke="#00ff00" stroke-width=".3097" points="152.5001,-132.5309 149,-122.5309 145.5001,-132.5309 152.5001,-132.5309"/>
</g>
<!-- &#45;17&#45;&gt;left -->
<g id="edge4" class="edge">
<title>&#45;17&#45;&gt;left</title>
<path fill="none" stroke="#ff0000" stroke-width=".3215" stroke-dasharray="1,5" d="M161.7402,-169.639C178.7134,-159.2546 209.56,-140.034 235,-122.267 236.4598,-121.2475 237.9516,-120.1826 239.4475,-119.0973"/>
<polygon fill="#ff0000" stroke="#ff0000" stroke-width=".3215" points="241.9328,-121.6105 247.8646,-112.8318 237.753,-115.9954 241.9328,-121.6105"/>
</g>
<!-- 646 -->
<g id="node23" class="node">
<title>646</title>
<ellipse fill="#ffffff" stroke="#000000" cx="207" cy="-101.7609" rx="19.1842" ry="19.1842"/>
<text text-anchor="middle" x="207" y="-99.5609" font-family="Times,serif" font-size="9.00" fill="#000000">646</text>
</g>
<!-- &#45;17&#45;&gt;646 -->
<g id="edge6" class="edge">
<title>&#45;17&#45;&gt;646</title>
<path fill="none" stroke="#ff0000" stroke-width=".4646" d="M156.1119,-168.0891C164.2542,-157.4764 177.9001,-139.6901 189.0124,-125.2062"/>
<polygon fill="#ff0000" stroke="#ff0000" stroke-width=".4646" points="191.8915,-127.2035 195.2017,-117.139 186.3377,-122.9425 191.8915,-127.2035"/>
</g>
<!-- &#45;18 -->
<g id="node18" class="node">
<title>&#45;18</title>
<polygon fill="#d3d3d3" stroke="#000000" points="742.5,-398.8183 717.5,-398.8183 717.5,-380.8183 742.5,-380.8183 742.5,-398.8183"/>
<text text-anchor="middle" x="730" y="-387.6183" font-family="Times,serif" font-size="9.00" fill="#000000">&#45;18</text>
</g>
<!-- 646&#45;&gt;down -->
<g id="edge7" class="edge">
<title>646&#45;&gt;down</title>
<path fill="none" stroke="#ff0000" stroke-width=".2036" stroke-dasharray="1,5" d="M191.2118,-90.0845C174.2226,-77.5199 146.9102,-57.3206 126.595,-42.2961"/>
<polygon fill="#ff0000" stroke="#ff0000" stroke-width=".2036" points="128.4886,-39.3434 118.3673,-36.2113 124.3263,-44.9715 128.4886,-39.3434"/>
</g>
<!-- 902&#45;&gt;782 -->
<g id="edge15" class="edge">
<title>902&#45;&gt;782</title>
<path fill="none" stroke="#00ff00" stroke-width=".1309" d="M275.7945,-307.0067C277.8872,-298.836 280.3874,-289.0741 282.7029,-280.0336"/>
<polygon fill="#00ff00" stroke="#00ff00" stroke-width=".1309" points="286.1164,-280.8121 285.207,-270.2564 279.3353,-279.0753 286.1164,-280.8121"/>
</g>
<!-- 782&#45;&gt;left -->
<g id="edge10" class="edge">
<title>782&#45;&gt;left</title>
<path fill="none" stroke="#00ff00" stroke-width=".3919" d="M286.4538,-232.5727C281.5783,-206.4921 272.773,-159.3897 267.1654,-129.3925"/>
<polygon fill="#00ff00" stroke="#00ff00" stroke-width=".3919" points="270.5353,-128.372 265.2573,-119.1854 263.6545,-129.6583 270.5353,-128.372"/>
</g>
<!-- 815 -->
<g id="node26" class="node">
<title>815</title>
<ellipse fill="#ffffff" stroke="#000000" cx="309" cy="-177.3589" rx="19.1842" ry="19.1842"/>
<text text-anchor="middle" x="309" y="-175.1589" font-family="Times,serif" font-size="9.00" fill="#000000">815</text>
</g>
<!-- 782&#45;&gt;815 -->
<g id="edge11" class="edge">
<title>782&#45;&gt;815</title>
<path fill="none" stroke="#ff0000" stroke-width=".3201" d="M294.7945,-232.823C296.8872,-224.6523 299.3874,-214.8903 301.7029,-205.8498"/>
<polygon fill="#ff0000" stroke="#ff0000" stroke-width=".3201" points="305.1164,-206.6284 304.207,-196.0726 298.3353,-204.8915 305.1164,-206.6284"/>
</g>
<!-- 815&#45;&gt;left -->
<g id="edge12" class="edge">
<title>815&#45;&gt;left</title>
<path fill="none" stroke="#ff0000" stroke-width=".3828" d="M298.8017,-160.9553C292.3681,-150.6071 283.9513,-137.0688 276.7909,-125.5516"/>
<polygon fill="#ff0000" stroke="#ff0000" stroke-width=".3828" points="279.632,-123.4924 271.3797,-116.8479 273.6872,-127.1884 279.632,-123.4924"/>
</g>
</g>
</svg>
